<svg version="1.2" xmlns="http://www.w3.org/2000/svg" viewBox="0 0 180 180" width="64" height="64">
    <style>
      .s0 { fill: #ffffff } 
    </style>
    <g id="Background">
      <path id="Path 1" class="s0" d="m39.25 25.49c-1.24 0.83-2.92 2.86-3.75 4.51-1.2 2.41-1.5 7.56-1.5 26 0 19.11 0.25 23.25 1.5 24.5 0.83 0.83 2.06 1.5 2.75 1.5 0.69 0 4.63-0.93 8.75-2.07 4.13-1.15 8.1-2.61 8.83-3.26 1.05-0.93 1.26-5.93 1-24l-0.33-22.84c-5.76-5.16-7.47-5.83-10.75-5.84-2.34 0-5.26 0.67-6.5 1.5zm86.52 1.43l-3.27 2.92v119.32c5.76 5.17 7.47 5.84 10.75 5.85 2.34 0 5.26-0.67 6.5-1.5 1.24-0.83 2.93-2.86 3.75-4.51 1.28-2.56 1.5-11.28 1.5-59.5 0-48.22-0.22-56.94-1.5-59.5-0.82-1.65-2.51-3.68-3.75-4.51-1.24-0.83-4.15-1.5-6.48-1.5-3.26 0.01-4.99 0.68-7.5 2.93zm-54.36 56.4c-18.76 5.05-34.86 9.86-35.8 10.68-1.52 1.34-1.69 4.2-1.65 26.75 0.03 20.38 0.33 25.83 1.54 28.25 0.83 1.65 2.51 3.68 3.75 4.51 1.24 0.83 4.16 1.5 6.5 1.5 3.28-0.01 4.99-0.68 7.5-2.93l3.25-2.91 1-38.45c40.3-10.79 52.58-14.44 53.29-15.07 0.89-0.78 1.29-4.01 1.27-10.15-0.02-5.9-0.46-9.44-1.29-10.27-0.7-0.69-2.17-1.23-3.27-1.18-1.1 0.05-17.34 4.22-36.09 9.27z"/>
    </g>
  </svg>