  <svg width="64" height="64" viewBox="0 0 512 512" fill="none" xmlns="http://www.w3.org/2000/svg">
    <path d="M446 424H371.814V222.962C371.814 201.25 372.744 177.272 374.605 151.029H372.744C368.868 171.649 365.38 186.488 362.279 195.548L284.14 424H222.744L143.209 197.891C141.039 191.799 137.55 176.179 132.744 151.029H130.651C132.667 184.145 133.674 213.199 133.674 238.192V424H66V88H176L244.14 287.163C249.566 303.096 253.519 319.107 256 335.197H257.395C261.581 316.608 266 300.441 270.651 286.695L338.791 88H446V424Z" fill="#ffffff"/>
  </svg>