<svg version="1.2" xmlns="http://www.w3.org/2000/svg" viewBox="0 0 850 850" width="64" height="64">
    <style>
      .s0 { fill: #ffffff } 
    </style>
    <g id="Background">
      <path id="Path 1" class="s0" d="m436 39.62c-3.02 0.82-7.75 2.7-10.5 4.18-2.75 1.48-7.48 5.17-10.5 8.2-3.03 3.02-6.73 7.75-8.22 10.5-1.49 2.75-3.4 8.15-4.23 12-1.32 6.09-1.52 28.17-1.54 170-0.01 113.05 0.31 164.84 1.06 169 0.6 3.3 2.52 8.92 4.26 12.49 1.84 3.77 5.48 8.81 8.68 12 3.19 3.2 8.23 6.84 12 8.68 3.57 1.74 9.19 3.66 12.49 4.26 4.16 0.75 56.06 1.08 169 1.09 107.9 0 164.86-0.35 168.5-1.03 3.02-0.57 8.2-2.3 11.5-3.85 3.3-1.55 8.64-5.25 11.86-8.23 4.35-4.02 6.92-7.58 10-13.83l4.14-8.43c0.48-318.68 0.33-338.84-1.03-344.15-0.85-3.3-2.99-8.41-4.76-11.35-1.76-2.95-5.69-7.68-8.71-10.53-3.02-2.84-7.98-6.36-11-7.82-3.02-1.46-7.52-3.12-10-3.7-3.05-0.71-58.14-1.04-171-1.01-144.35 0.04-167.23 0.24-172 1.53zm-374.5 80.51c-3.3 1.15-7.83 3.4-10.07 5.01-2.24 1.61-5.75 5.05-7.8 7.64-2.05 2.6-4.71 7.19-5.93 10.22l-2.2 5.5c-0.45 218.59-0.18 269.54 0.45 274 0.55 3.85 2.1 9.25 3.44 12 1.34 2.75 4.5 7.14 7.02 9.75 2.67 2.76 7.42 6.11 11.34 8l6.75 3.25 276.5 0.5c9.69-3.27 14.3-5.45 16.5-6.95 2.2-1.51 5.4-4.5 7.12-6.65 1.71-2.14 4.02-5.7 5.12-7.9 1.11-2.2 2.52-6.36 3.14-9.25 0.8-3.73 1.12-43.64 1.12-138.25 0-93.54-0.33-134.56-1.11-138.25-0.61-2.89-2.52-7.91-4.25-11.16-1.73-3.24-5.16-7.66-7.64-9.81-2.48-2.16-6.98-5.12-10-6.6l-5.5-2.68c-277.52-0.45-278.02-0.44-284 1.63zm74 360.93c-2.75 1.08-6.92 3.87-9.26 6.2-2.34 2.33-5.26 6.49-6.5 9.24l-2.24 5c0 204.86 0.12 212.25 1.75 215.75 0.96 2.06 3.66 5.83 6 8.37 2.34 2.54 6.05 5.57 8.25 6.75l4 2.13h216c6.2-3.31 9.83-6.23 12.06-8.63 2.23-2.4 4.93-6.62 6-9.37 1.88-4.84 1.94-8.46 1.94-110v-105c-4.05-8.77-6.9-12.5-10-15.21-2.75-2.41-7.02-5.04-9.5-5.84-3.85-1.26-19.71-1.46-109-1.41-101.46 0.05-104.65 0.11-109.5 2.02zm293-0.71c-2.2 0.68-6.02 2.4-8.5 3.81-2.48 1.42-6.67 5-9.31 7.96-2.65 2.96-5.8 7.86-7 10.88l-2.19 5.5c0 265.02 0.11 274.33 1.75 279 0.97 2.75 3.45 7.25 5.53 10 2.07 2.75 6.23 6.66 9.24 8.68 3.02 2.03 8.18 4.39 11.48 5.26 5.31 1.39 21.13 1.57 138.25 1.57 94.04-0.01 133.77-0.33 137.5-1.13 2.89-0.62 7.05-2.04 9.25-3.16 2.2-1.12 6.25-4.16 9-6.75 3.09-2.91 6.15-7.15 8-11.09l3-6.38v-278c-4.26-8.91-7.64-13.66-10.25-16.3-2.61-2.64-7.45-6.13-10.75-7.75l-6-2.95c-244.12-0.34-275.9-0.1-279 0.85z"/>
    </g>
  </svg>