<svg version="1.2" xmlns="http://www.w3.org/2000/svg" viewBox="0 0 512 512" width="64" height="64">
    <style>
      .s0 { opacity: .97;fill: #ffffff } 
    </style>
    <g id="Background">
      <path id="Path 0" fill-rule="evenodd" class="s0" d="m57.97 218.5c0.29 0.36 0.4 5.01 0.23 10.33-0.17 5.62 0.58 16.79 1.8 26.67 1.14 9.35 3.16 21.05 4.47 26 1.31 4.95 3.76 13.05 5.44 18 1.67 4.95 5.67 14.18 8.87 20.5 3.2 6.32 7.24 13.98 8.97 17 1.74 3.02 7.11 10.45 11.95 16.49 4.84 6.05 11.73 13.92 15.32 17.5 3.58 3.58 10.56 9.69 15.5 13.58 4.94 3.89 11.12 8.5 13.73 10.25 2.61 1.75 4.97 3.18 5.25 3.18 0.28 0 3.09 1.7 6.25 3.78 3.16 2.08 11.15 6.08 17.75 8.9 6.6 2.81 17.63 6.74 24.5 8.73 6.88 1.99 16.55 4.09 21.5 4.67 4.95 0.57 9.45 1.31 10 1.62 0.55 0.32 9.78 0.57 20.5 0.56 10.73-0.01 22.43-0.54 26-1.18 3.57-0.65 9.2-1.67 12.5-2.26 3.3-0.6 8.48-1.74 11.5-2.54 3.02-0.8 7.07-1.85 9-2.33 1.93-0.48 8-2.63 13.5-4.78 5.5-2.14 14.95-6.48 21-9.64 6.05-3.16 13.7-7.56 17-9.78 3.3-2.22 10.05-7.22 15-11.11 4.95-3.88 13.42-11.58 18.83-17.1 5.4-5.52 12.84-14.09 16.53-19.04 3.69-4.95 8.79-12.15 11.35-16 2.55-3.85 7.42-12.85 10.81-20 3.4-7.15 7.42-16.82 8.94-21.5 1.51-4.68 3.79-12.1 5.06-16.5 1.26-4.4 2.69-8.45 3.16-9 0.49-0.58 0.83 0.9 0.81 3.5-0.03 2.48-0.49 7.87-1.02 12-0.54 4.12-1.87 11.1-2.97 15.5-1.1 4.4-2.74 10.48-3.65 13.5-0.9 3.02-2.76 8.43-4.13 12-1.37 3.57-4.98 11.68-8.04 18-3.05 6.32-8.03 15.32-11.08 20-3.04 4.68-7.06 10.52-8.94 13-1.87 2.48-5.72 7.17-8.54 10.44-2.81 3.27-7.6 8.41-10.62 11.42-3.02 3.01-8.43 7.99-12 11.06-3.57 3.08-10.32 8.35-15 11.72-4.68 3.37-10.52 7.29-13 8.73-2.48 1.43-9.9 5.28-16.5 8.54-6.6 3.26-16.95 7.6-23 9.64-6.05 2.04-11.45 3.79-12 3.88-0.55 0.09-4.38 0.91-8.5 1.82-4.13 0.92-12 2.35-17.5 3.19-5.5 0.84-13.15 1.81-17 2.15-3.85 0.35-13.41 0.13-21.25-0.48-7.84-0.61-16.39-1.51-19-2.01-2.61-0.49-7.9-1.44-11.75-2.11-3.85-0.67-9.93-2.11-13.5-3.19-3.57-1.09-7.96-2.61-9.75-3.39-1.79-0.78-3.81-1.4-4.5-1.39-0.69 0.01-7.32-2.99-14.75-6.67-7.43-3.68-16.65-8.74-20.5-11.24-3.85-2.5-10.38-7.1-14.5-10.22-4.13-3.13-12-10.12-17.5-15.54-5.5-5.42-11.67-11.87-13.7-14.35-2.04-2.48-5.51-6.98-7.71-10-2.21-3.02-4.98-7.3-6.17-9.5-1.18-2.2-2.71-4.68-3.39-5.5-0.68-0.82-2.38-3.75-3.77-6.5-1.39-2.75-4.2-8.6-6.24-13-2.03-4.4-4.06-8.9-4.5-10-0.45-1.1-1.97-5.82-3.4-10.5-1.42-4.68-3.27-11.09-4.11-14.25-0.83-3.16-2.44-13.51-3.57-23-1.39-11.72-1.86-19.98-1.46-25.75 0.33-4.68 0.81-10.97 1.07-14 0.27-3.03 0.74-7.3 1.05-9.5 0.31-2.2 0.77-5.35 1.02-7 0.25-1.65 0.76-3.82 1.14-4.83 0.38-1 0.92-1.53 1.21-1.17zm333.47-107.5c0.86 0 3.61 2.14 6.12 4.75 2.5 2.61 5.77 6.55 7.24 8.75 1.48 2.2 2.92 4.22 3.2 4.5 0.28 0.28 1.81 2.53 3.41 5 1.6 2.47 3.73 5.74 4.75 7.25 1.01 1.51 1.83 3.31 1.82 4-0.01 0.69 0.39 1.7 0.88 2.25 0.49 0.55 2.72 5.28 4.95 10.5 2.23 5.22 4.75 12.2 5.59 15.5 0.83 3.3 2.46 10.28 3.6 15.5 1.64 7.47 2.11 13.24 2.18 27 0.06 12.02-0.4 20.16-1.48 26-0.87 4.68-2.03 10.53-2.6 13-0.56 2.48-2.11 7.65-3.44 11.5-1.32 3.85-3.2 8.8-4.17 11-0.97 2.2-2.82 6.25-4.11 9-1.29 2.75-4.49 8.39-7.11 12.54-2.63 4.15-6.57 9.76-8.77 12.47-2.2 2.71-4.9 6-6 7.3-1.1 1.3-3.35 3.86-5 5.69-1.65 1.83-6.38 6.14-10.5 9.57-4.13 3.44-10.65 8.32-14.5 10.85-3.85 2.52-11.73 6.92-17.5 9.76-6.17 3.04-15.65 6.6-23 8.64-7.28 2.02-17.51 3.98-24.5 4.71-6.91 0.72-16.24 0.99-22 0.63-5.5-0.34-14.05-1.32-19-2.18-4.95-0.86-12.38-2.64-16.5-3.95-4.13-1.31-9.3-3.12-11.5-4.03-2.2-0.91-8.05-3.65-13-6.08-4.95-2.44-9.9-4.99-11-5.68-1.1-0.68-6.28-4.59-11.5-8.68-5.23-4.1-12.2-10.2-15.5-13.58-3.3-3.37-7.99-8.8-10.43-12.06-2.43-3.25-5.61-7.49-7.07-9.42-1.45-1.93-3.33-4.85-4.16-6.5-0.84-1.65-2.47-4.8-3.62-7-1.16-2.2-2.45-5.35-3.63-10l3.41 2.5c1.87 1.37 4.33 3.43 5.45 4.57 1.13 1.14 5.2 4.46 9.05 7.37 3.85 2.92 7.9 5.76 9 6.33 1.1 0.57 2.22 1.31 2.5 1.65 0.27 0.34 4.1 2.47 8.5 4.74 4.4 2.27 12.27 5.77 17.5 7.77 5.22 2.01 14 4.6 19.5 5.76 6.84 1.44 15.06 2.24 26 2.55 11.78 0.32 18.51 0.02 25.5-1.16 5.23-0.88 12.42-2.44 16-3.48 3.57-1.04 9.42-3 13-4.37 3.57-1.36 9.2-3.8 12.5-5.42 3.3-1.62 8.7-4.67 12-6.77 3.3-2.09 8.48-5.65 11.5-7.9 3.02-2.26 8.81-7.26 12.86-11.12 4.05-3.86 10.14-10.62 13.54-15.02 3.4-4.4 7.48-10.02 9.06-12.5 1.59-2.47 4.11-6.75 5.6-9.5 1.5-2.75 4.07-8.38 5.73-12.5 1.66-4.13 4.18-11.21 5.61-15.75 1.43-4.54 3.33-13.09 4.23-19 0.92-6.02 1.64-16.91 1.64-24.75 0.01-7.7-0.48-16.25-1.08-19-0.6-2.75-1.6-8.15-2.22-12-0.62-3.85-2.73-11.72-4.68-17.5-1.94-5.78-3.96-11.29-4.47-12.25-0.7-1.32-0.55-1.75 0.62-1.75zm-156.44-60.29c3.57 0.23 8.75 0.9 11.5 1.49 2.75 0.59 7.92 2.48 11.5 4.19 4.22 2.02 8.78 5.39 13 9.61 3.57 3.57 7.73 8.97 9.22 12 1.5 3.03 3.5 8.42 4.44 12 1.05 3.96 1.65 9.63 1.56 14.5-0.1 4.66-1.02 10.92-2.22 15-1.12 3.85-3.26 9.03-4.74 11.5-1.48 2.47-4.28 6.08-6.22 8.01-1.95 1.94-5.68 4.52-8.29 5.75-3.46 1.63-6.59 2.24-11.5 2.24-4.99-0.01-7.6-0.53-10-2-1.79-1.1-4.04-3.36-5-5.01-0.96-1.66-2.09-3.01-2.5-3-0.41 0-2.27 1.47-4.12 3.26-1.85 1.79-5.57 4.04-8.25 5-2.7 0.97-7.68 1.76-11.13 1.75-4.23 0-7.14-0.57-9-1.75-1.51-0.96-3.88-2.88-5.27-4.25-1.38-1.38-3.23-4.3-4.11-6.5-0.89-2.2-1.9-6.03-2.26-8.5-0.45-3.05-0.04-6.92 1.24-12 1.05-4.13 2.93-9.53 4.18-12 1.25-2.47 4.8-6.95 7.88-9.94 3.27-3.18 8.28-6.69 12.09-8.47 5.99-2.8 7.36-3.04 17.5-3.06 7-0.01 12.76 0.52 15.84 1.47 2.66 0.83 5.24 1.95 5.74 2.5 0.54 0.6 0.53 3.02-0.03 6-0.51 2.75-1.44 8.15-2.07 12-0.63 3.85-1.82 10.37-2.63 14.5-0.82 4.12-1.23 9.41-0.92 11.75 0.45 3.32 1.06 4.38 2.82 4.83 1.24 0.33 3.37 0.33 4.75 0.01 1.37-0.32 3.93-2.05 5.69-3.84 1.75-1.79 3.71-4.6 4.36-6.25 0.64-1.65 1.78-5.47 2.53-8.5 0.74-3.03 1.36-7.53 1.38-10 0.02-2.47-0.63-7.65-1.45-11.5-1.06-4.98-2.74-8.87-5.83-13.5-2.73-4.09-6.36-7.89-9.76-10.25-3.72-2.57-7.62-4.21-12.42-5.23-3.85-0.82-9.7-1.5-13-1.51-3.3-0.01-8.59 0.66-11.75 1.48-3.16 0.83-8.34 2.92-11.5 4.63-3.16 1.72-6.95 4.08-8.42 5.25-1.47 1.17-4.66 4.83-7.08 8.13-2.43 3.3-5.09 7.35-5.92 9-0.83 1.65-2.36 5.7-3.41 9-1.44 4.55-1.9 8.9-1.88 18 0.03 9.86 0.44 13.16 2.31 18.5 1.25 3.57 3.76 8.53 5.58 11 1.81 2.47 4.82 5.79 6.69 7.37 1.86 1.57 6.3 4.24 9.88 5.91 5.6 2.63 7.95 3.11 17 3.51 8.7 0.38 11.96 0.07 19-1.78 4.67-1.23 9.14-2.3 9.93-2.37 0.88-0.09 1.94 1.59 2.76 4.36 0.73 2.47 1.17 4.95 0.97 5.5-0.2 0.55-3.91 2.31-8.26 3.91-7.34 2.7-8.92 2.91-22.4 2.94-13.38 0.04-15.12-0.18-22.5-2.77-4.4-1.54-8.9-3.65-10-4.67-1.1-1.03-2.45-1.86-3-1.86-0.55 0.01-3.34-2.36-6.2-5.27-2.86-2.9-6.05-6.41-7.08-7.78-1.04-1.38-2.68-4.07-3.65-6-0.97-1.93-2.21-4.85-2.75-6.5-0.55-1.65-1.63-6.15-2.4-10-0.78-3.85-1.42-9.81-1.42-13.25 0-3.44 0.71-9.74 1.58-14 0.87-4.26 2.86-10.68 4.43-14.25 1.56-3.58 2.66-6.72 2.43-7-0.22-0.28-2.22 0.74-4.42 2.25-2.21 1.51-9.09 7.81-15.28 14-6.19 6.19-12.83 13.49-14.75 16.22-1.92 2.73-4.7 7.01-6.18 9.5-1.47 2.49-4.58 8.13-6.89 12.53-2.32 4.4-5.97 12.95-8.13 19-2.16 6.05-4.58 13.93-5.39 17.5-0.81 3.57-2.41 11.68-3.56 18-1.53 8.37-2.14 15.99-2.22 28-0.07 9.18 0.47 20.49 1.2 25.5 0.73 4.95 2.26 13.27 3.4 18.5 1.14 5.23 3.36 12.99 4.93 17.25 1.57 4.26 3.24 8.54 3.71 9.5 0.47 0.96 3.09 6.25 5.82 11.75 2.73 5.5 8.28 14.73 12.34 20.5 4.07 5.78 11.67 14.7 16.93 19.84 5.25 5.14 12.03 11.22 15.07 13.5 3.04 2.29 6.41 4.71 7.5 5.39 1.09 0.68 4.9 3 8.48 5.15 3.57 2.16 9.32 5.43 12.77 7.27 3.44 1.84 6.25 3.69 6.25 4.1-0.01 0.41-0.81 0.49-1.77 0.18-0.96-0.31-4-1-6.75-1.54-2.75-0.53-9.05-2.61-14-4.63-4.95-2.01-11.7-5.2-15-7.08-3.3-1.88-7.58-4.32-9.5-5.42-1.93-1.1-4.85-2.92-6.5-4.05-1.65-1.14-5.48-4.3-8.5-7.03-3.03-2.74-8.58-7.94-12.35-11.58-3.77-3.63-10.52-11.56-15-17.63-4.48-6.06-8.79-12.14-9.57-13.5-0.78-1.36-2.82-5.17-4.54-8.47-1.72-3.3-4.72-10.05-6.66-15-1.94-4.95-4.49-12.15-5.67-16-1.17-3.85-2.79-10.38-3.6-14.5-0.81-4.13-2.02-12.68-2.69-19-0.75-7.09-0.96-16.1-0.54-23.5 0.37-6.6 1.3-15.82 2.08-20.5 0.78-4.68 2.6-13 4.04-18.5 1.45-5.5 3.75-12.93 5.12-16.5 1.37-3.57 4.15-9.84 6.19-13.93 2.03-4.09 5.8-10.84 8.39-15 2.58-4.16 6.17-9.6 7.99-12.07 1.81-2.47 5.4-6.75 7.97-9.5 2.58-2.75 5.51-5.93 6.51-7.06 1.01-1.13 4.57-4.5 7.92-7.5 3.35-2.99 7.06-6.23 8.25-7.19 1.19-0.96 2.61-1.75 3.16-1.75 0.55 0 1.11-0.39 1.25-0.87 0.14-0.49 3.62-3.08 7.75-5.76 4.12-2.68 9.97-6.07 13-7.52 3.02-1.46 7.07-3.32 9-4.13 1.92-0.81 6.42-2.63 10-4.04 3.57-1.41 12.35-3.69 19.5-5.07 7.15-1.38 14.35-2.69 16-2.91 1.65-0.22 5.92-0.21 9.5 0.01zm-17.25 50.66c-2.26 2.19-4.59 5.91-5.86 9.38-1.15 3.16-2.16 7.55-2.22 9.75-0.07 2.2 0.44 5.35 1.13 7 0.68 1.65 2.47 3.57 3.97 4.26 1.5 0.69 3.4 1.24 4.23 1.22 0.82-0.03 3.07-0.94 5-2.04 1.92-1.1 4.8-4.12 6.38-6.72 1.58-2.6 3.69-7.64 4.67-11.22 0.98-3.58 1.94-8.97 2.12-12l0.33-5.5c-7.75-0.36-11.35 0.14-13 0.88-1.65 0.75-4.69 2.99-6.75 4.99z"/>
    </g>
  </svg>