  <svg version="1.2" xmlns="http://www.w3.org/2000/svg" viewBox="0 0 540 540" width="64" height="64">
    <style>
      .s0 { fill: #ffffff } 
    </style>
    <g id="Background">
      <path id="Path 1" class="s0" d="m135 91c-3.57 0.49-9.42 1.66-13 2.6-3.58 0.95-9.88 3.12-14 4.84-4.13 1.72-10.87 5.36-14.99 8.09-4.12 2.73-10.37 7.67-13.88 10.97-3.51 3.3-8.57 8.92-11.25 12.5-2.67 3.57-6.52 9.65-8.54 13.5-2.02 3.85-4.73 10.15-6.04 14-1.3 3.85-3.03 10.82-3.84 15.5-0.82 4.68-1.48 12.1-1.48 16.5 0 4.4 0.7 12.05 1.56 17 0.86 4.95 2.56 12.06 3.76 15.8l2.2 6.8c-9.3 6.69-14.7 11.51-18 15.02-3.3 3.52-7.92 9.32-10.27 12.89-2.34 3.57-5.65 10.09-7.35 14.49-1.7 4.4-3.71 10.93-4.47 14.5-0.76 3.57-1.39 11.9-1.41 18.5-0.02 9.36 0.49 14.09 2.34 21.5 1.37 5.49 4.31 13.3 6.98 18.5 2.53 4.95 7.02 11.93 9.96 15.5 2.94 3.57 7.57 8.37 10.28 10.65 2.72 2.28 7.86 5.92 11.44 8.09 3.58 2.17 9.65 5.2 13.5 6.72 3.85 1.52 10.6 3.45 15 4.27 5.38 1.01 12.17 1.38 20.74 1.14l12.74-0.37c2.45 6.2 5.25 11.38 7.78 15.5 2.54 4.12 7.8 10.81 11.68 14.86 3.88 4.05 9.76 9.3 13.06 11.68 3.3 2.38 9.82 6.13 14.5 8.34 4.68 2.21 12.55 5.02 17.5 6.24 6.78 1.68 12.08 2.24 21.5 2.29 8.46 0.03 14.93-0.51 20-1.67 4.13-0.95 10.43-2.87 14-4.27 3.57-1.4 8.97-3.94 12-5.65 3.03-1.71 7.98-5 11-7.32 3.02-2.32 8.17-7.09 11.43-10.61 3.26-3.51 7.54-8.88 9.5-11.91 1.96-3.04 4.47-7.45 5.57-9.8 1.46-3.12 2.4-4.08 3.5-3.56 0.82 0.39 4.65 1.77 8.5 3.07 3.85 1.29 10.82 2.83 15.5 3.41 5.99 0.74 11.23 0.73 17.75-0.03 5.09-0.59 12.74-2.19 17-3.56 4.26-1.38 11.01-4.3 15-6.5 4.17-2.31 10.68-7.3 15.33-11.76 4.44-4.26 9.73-10.27 11.75-13.35l3.67-5.6c7.75 1.48 16.98 1.68 25.5 1.4 12.63-0.43 17.26-1.01 25-3.18 5.23-1.46 12.88-4.22 17-6.15 4.13-1.92 11.1-5.9 15.5-8.84 4.4-2.94 11.49-8.87 15.76-13.19 4.27-4.31 9.79-10.54 12.26-13.84 2.47-3.3 6.49-10.05 8.93-15 2.45-4.95 5.33-11.7 6.42-15 1.09-3.3 2.74-9.82 3.68-14.5 1.35-6.75 1.6-12 1.22-25.5-0.42-14.76-0.84-18.18-3.2-26-1.5-4.95-4.06-12.15-5.71-16-1.64-3.85-5.83-11.28-9.31-16.5-3.68-5.54-9.81-12.85-14.69-17.54-4.6-4.42-11.29-10.02-14.86-12.44-3.57-2.42-10.55-6.33-15.5-8.68-4.95-2.36-13.5-5.46-19-6.9-7.29-1.9-13.52-2.75-23-3.13-9.21-0.36-15.77-0.06-22.5 1.04-5.23 0.86-12.65 2.65-16.5 3.98-3.85 1.33-7.68 2.72-8.5 3.1-1.07 0.48-2.62-0.99-5.41-5.13-2.16-3.19-6.88-8.89-10.5-12.66-3.63-3.78-9.29-8.8-12.59-11.17-3.3-2.37-9.38-5.98-13.5-8.02-4.13-2.04-11.77-4.79-17-6.12-7.54-1.92-12.08-2.41-22-2.41-9.92 0-14.46 0.49-22 2.41-5.23 1.33-12.88 4.11-17 6.18-4.13 2.07-9.97 5.5-13 7.62-3.03 2.12-7.17 5.32-9.21 7.12l-3.71 3.25c-11.3-11.69-17.51-17.16-21.08-19.71-3.57-2.54-10.32-6.46-15-8.71-4.68-2.24-13-5.21-18.5-6.59-6.27-1.58-13.91-2.68-20.5-2.94-5.78-0.24-13.43-0.03-17 0.45z"/>
    </g>
  </svg>